<svg width="13" height="8" viewBox="0 0 13 8" fill="none" xmlns="http://www.w3.org/2000/svg">
<path d="M6.80957 7.38325C6.72849 7.38319 6.64777 7.36733 6.57324 7.3354C6.49881 7.30346 6.43188 7.2563 6.37598 7.1977L1.06543 1.62446C0.959143 1.51289 0.90039 1.36449 0.90039 1.2104C0.900426 1.05628 0.959088 0.907886 1.06543 0.796334L1.07324 0.788522C1.12518 0.734381 1.18788 0.691173 1.25684 0.661569C1.32656 0.63168 1.40168 0.616647 1.47754 0.616647C1.5534 0.616649 1.62852 0.631674 1.69824 0.661569C1.76804 0.691533 1.83147 0.735406 1.88379 0.790475L6.80957 5.96235L11.7363 0.790474C11.7886 0.735406 11.8521 0.691532 11.9219 0.661568C11.9916 0.631689 12.0667 0.616646 12.1426 0.616646C12.2184 0.616653 12.2936 0.631669 12.3633 0.661568C12.4323 0.691179 12.4949 0.734362 12.5469 0.788521L12.5547 0.796333C12.661 0.907881 12.7197 1.0563 12.7197 1.2104C12.7197 1.36448 12.661 1.51289 12.5547 1.62446L7.24414 7.1977C7.18815 7.2564 7.12047 7.30345 7.0459 7.3354C6.97135 7.36726 6.89065 7.38325 6.80957 7.38325Z" fill="white" stroke="white" stroke-width="0.2"/>
</svg>
