<svg width="39" height="35" viewBox="0 0 39 35" fill="none" xmlns="http://www.w3.org/2000/svg">
<g opacity="0.5">
<path d="M19.4971 34C29.3759 34 37.2637 26.5481 37.2637 17.5C37.2637 8.45194 29.3759 1 19.4971 1C9.61843 1.00017 1.73145 8.45204 1.73145 17.5C1.73145 26.548 9.61843 33.9998 19.4971 34Z" stroke="#FF0A4C" stroke-width="2"/>
<path d="M12.5264 19C11.9741 19 11.5264 18.5523 11.5264 18C11.5264 17.4477 11.9741 17 12.5264 17V18V19ZM27.1739 17.2929C27.5644 17.6834 27.5644 18.3166 27.1739 18.7071L20.8099 25.0711C20.4194 25.4616 19.7862 25.4616 19.3957 25.0711C19.0052 24.6805 19.0052 24.0474 19.3957 23.6569L25.0526 18L19.3957 12.3431C19.0052 11.9526 19.0052 11.3195 19.3957 10.9289C19.7862 10.5384 20.4194 10.5384 20.8099 10.9289L27.1739 17.2929ZM12.5264 18V17L26.4668 17V18V19L12.5264 19V18Z" fill="#FF0A4C"/>
</g>
</svg>
