<svg width="38" height="35" viewBox="0 0 38 35" fill="none" xmlns="http://www.w3.org/2000/svg">
<path d="M18.8066 1C28.6854 1 36.5732 8.45194 36.5732 17.5C36.5732 26.5481 28.6854 34 18.8066 34C8.928 33.9998 1.04102 26.548 1.04102 17.5C1.04102 8.45204 8.928 1.00017 18.8066 1Z" stroke="#FF0A4C" stroke-width="2"/>
<path d="M11.8359 16C11.2837 16 10.8359 16.4477 10.8359 17C10.8359 17.5523 11.2837 18 11.8359 18V17V16ZM26.4835 17.7071C26.874 17.3166 26.874 16.6834 26.4835 16.2929L20.1195 9.92893C19.729 9.53841 19.0958 9.53841 18.7053 9.92893C18.3148 10.3195 18.3148 10.9526 18.7053 11.3431L24.3621 17L18.7053 22.6569C18.3148 23.0474 18.3148 23.6805 18.7053 24.0711C19.0958 24.4616 19.729 24.4616 20.1195 24.0711L26.4835 17.7071ZM11.8359 17V18L25.7764 18V17V16L11.8359 16V17Z" fill="#FF0A4C"/>
</svg>
