<svg width="38" height="35" viewBox="0 0 38 35" fill="none" xmlns="http://www.w3.org/2000/svg">
<path d="M18.8076 34C8.92882 34 1.04102 26.5481 1.04102 17.5C1.04102 8.45194 8.92882 1 18.8076 1C28.6863 1.00017 36.5732 8.45204 36.5732 17.5C36.5732 26.548 28.6863 33.9998 18.8076 34Z" stroke="#FF0A4C" stroke-width="2"/>
<path d="M25.7783 19C26.3306 19 26.7783 18.5523 26.7783 18C26.7783 17.4477 26.3306 17 25.7783 17V18V19ZM11.1308 17.2929C10.7403 17.6834 10.7403 18.3166 11.1308 18.7071L17.4948 25.0711C17.8853 25.4616 18.5184 25.4616 18.909 25.0711C19.2995 24.6805 19.2995 24.0474 18.909 23.6569L13.2521 18L18.909 12.3431C19.2995 11.9526 19.2995 11.3195 18.909 10.9289C18.5184 10.5384 17.8853 10.5384 17.4948 10.9289L11.1308 17.2929ZM25.7783 18V17H11.8379V18V19H25.7783V18Z" fill="#FF0A4C"/>
</svg>
