<svg width="39" height="35" viewBox="0 0 39 35" fill="none" xmlns="http://www.w3.org/2000/svg">
<g opacity="0.5">
<path d="M19.498 1C9.61925 1 1.73145 8.45194 1.73145 17.5C1.73145 26.5481 9.61925 34 19.498 34C29.3767 33.9998 37.2637 26.548 37.2637 17.5C37.2637 8.45204 29.3767 1.00017 19.498 1Z" stroke="#FF0A4C" stroke-width="2"/>
<path d="M26.4688 16C27.021 16 27.4688 16.4477 27.4688 17C27.4688 17.5523 27.021 18 26.4688 18V17V16ZM11.8212 17.7071C11.4307 17.3166 11.4307 16.6834 11.8212 16.2929L18.1852 9.92893C18.5757 9.53841 19.2089 9.53841 19.5994 9.92893C19.9899 10.3195 19.9899 10.9526 19.5994 11.3431L13.9425 17L19.5994 22.6569C19.9899 23.0474 19.9899 23.6805 19.5994 24.0711C19.2089 24.4616 18.5757 24.4616 18.1852 24.0711L11.8212 17.7071ZM26.4688 17V18L12.5283 18V17V16L26.4688 16V17Z" fill="#FF0A4C"/>
</g>
</svg>
