<svg xmlns="http://www.w3.org/2000/svg" fill="none" version="1.1" viewBox="0 0 1200 640">
 <path d="m607.2 162.8-53.7 308.7h-60.95l53.49-308.7zm71.6 131.2-9.163 51.31h-110l9.163-51.31zm34.31-131.2-9.163 51.52h-121.2l8.95-51.52zm141.5 206.1 58.6-0.8481c-2.274 21.49-8.311 40.43-18.11 56.82-9.66 16.4-22.8 29.12-39.42 38.17-16.48 9.047-35.94 13.29-58.39 12.72-18.75-0.4234-34.17-4.452-46.24-12.09-12.08-7.775-21.38-17.95-27.92-30.53-6.536-12.72-10.58-26.79-12.15-42.2-1.562-15.55-1.35-31.38 0.6396-47.5l8.098-52.37c2.557-17.1 6.889-33.64 13-49.62 6.109-16.11 14.21-30.46 24.29-43.04 10.09-12.72 22.45-22.69 37.08-29.9 14.78-7.208 31.82-10.6 51.14-10.18 22.3 0.4247 39.92 5.584 52.85 15.48 13.07 9.754 22.45 22.83 28.13 39.23 5.683 16.4 8.595 34.56 8.738 54.49l-60.95-0.2129c0.5678-9.612 0.4256-18.73-0.4268-27.35-0.8524-8.763-3.694-15.9-8.524-21.42-4.689-5.655-12.86-8.694-24.51-9.118-11.36-0.4246-20.74 1.838-28.13 6.785-7.246 4.947-13.07 11.52-17.47 19.72-4.262 8.198-7.53 17.1-9.803 26.72-2.13 9.612-3.836 18.94-5.114 27.99l-7.458 53.01c-0.9946 7.351-1.918 15.55-2.77 24.6-0.7101 9.047-0.4973 17.81 0.6384 26.29 1.137 8.481 4.049 15.55 8.738 21.2 4.689 5.655 12.29 8.764 22.8 9.329 12.36 0.4247 22.02-1.837 28.98-6.785 6.961-4.947 12.15-11.73 15.56-20.36 3.552-8.764 6.25-18.45 8.097-29.05zm345.4-206.1-53.91 308.7h-59.46l-54.55-205.7-35.8 205.7h-60.95l53.49-308.7h59.67l54.98 205.9 35.8-205.9z" fill="#ffffff" stroke-width="11.92"/>
 <path d="m260.2 172.2c-54.66 0.753-83.32 19.44-106.9 32.66-17.95 12.86-30.44 24.26-48.96 49.42-20.65 28.05-28.92 6.691-41.71-7.863-9.685-11.02-33.98-62.59-62.63-58.48 19.95 35.95 7.489 92.34 29.41 113.1 17.53 16.64 36.62 27.92 54.88 31.59 0.2587 3.298 10.05 19.81 3.579 42.14-19.66 7.05-29.78 12.61-29.37 22.52 0.5402 13.15 10.32 14.87 19.32 16.45l0.2043 0.0357c-9.947 3.714-25.75 18.99-21.43 44.99 5.4 32.5 30.93 33.3 49.74 32.54 33.11 32.48 108.8 17.42 137 6.561 28.73-11.1 33.43-22.68 63.56-71.7 32.51-18.24 83.17-44.19 41.24-102.4 42.33 22.91 95.01 28.09 103.6 21.52 12.54-9.584-19.8-50.3-86.03-88.42 39.88-18.53 53.5-43.72 55.06-62.9 3.678-45.37-45.78-80.12-96.88-109.7-42.14-24.36-80.18-26.89-95.47-84.35-28.79 27.64 3.711 90.29 50.13 123 47.1 33.14 21.57 48.73-18.3 49.28z" fill="url(#b)" stroke-width="11.92"/>
 <path d="m260.2 172.2c-54.66 0.753-83.32 19.44-106.9 32.66-17.95 12.86-30.44 24.26-48.96 49.42-20.65 28.05-28.92 6.691-41.71-7.863-9.685-11.02-33.98-62.59-62.63-58.48 19.95 35.95 7.489 92.34 29.41 113.1 17.53 16.64 36.62 27.92 54.88 31.59 0.2587 3.298 10.05 19.81 3.579 42.14-19.66 7.05-29.78 12.61-29.37 22.52 0.5402 13.15 10.32 14.87 19.32 16.45l0.2043 0.0357c-9.947 3.714-28.61 15.32-29.7 41.65-1.112 26.89 15.79 33.55 33 38.73 39.77 11.98 81.98-6.209 94.8-21.87 19-23.2 39.5-63.74 89.02-72.74 32.48-5.904 37.16 5.106 65.78 0.2664 44.41-25.34 24.88-54.08 17.2-76.07 42.33 22.91 95.01 28.09 103.6 21.52 12.54-9.584-19.8-50.3-86.03-88.42 39.88-18.53 53.5-43.72 55.06-62.9 3.678-45.37-45.78-80.12-96.88-109.7-42.14-24.36-80.18-26.89-95.47-84.35-28.79 27.64 3.711 90.29 50.13 123 47.1 33.14 21.57 48.73-18.3 49.28z" fill="url(#a)" stroke-width="11.92"/>
 <path d="m74.91 275.7c9.517 6.686 16.34 1.909 24.93-4.691-4.787 9.386-6.481 13.13-8.934 25.36-23.05-3.473-51.11-29.91-60.13-51.6-2.724 23.64 6.899 42 20.29 62.04-12.11-6.861-22.58-18.93-25.86-35.71-3.163-16.2-1.38-42.59-12.22-72.67 23.83 13.37 47.09 66.84 61.92 77.26z" fill="#fff" stroke-width="11.92"/>
 <path d="m245 232.8c-7.384-21.47 6.342-37.51 14.13-42.86 27.94-3.342 68.44-16.02 66.67-32.12-1.769-16.1-10.86-12.43-51.71-53.41-40.85-40.99-49.5-53.5-47.3-89.99 9.781 31.22 21.12 37.38 50.71 56.03 29.87 18.83 120.6 47.3 129.7 108.7-5.12-16.7-25.46-35-33.49-41.65-8.034-6.659-39.04-23.78-97.11-52.3 37.73 27.88 97.38 76.92 94.74 93.58-2.112 13.32-18.89 16.96-33.45 22.32-17.23 6.338-59.84 16.55-92.92 31.72z" fill="#fff" stroke-width="11.92"/>
 <path d="m136.7 233.5c-25.04 21.97-35.89 62.12-36.12 65.44 10.94 7.202 10.52 24.94 8.008 32.76l-14.93 50.61-19.7 6.316c-3.997 1.633-7.019 3.962-7.015 9.109 0.0045 5.147 1.88 6.786 6.174 6.366 6.256-0.6114 9.23-5.817 38.1-8.167 65.76-8.926 67.29 19.32 48.02 62.75 41.18-41.01 22.4-62.68 8.05-73.86-10.32-8.036-25.06-7.437-46.83-6.552 40.91-97.84 93.43-136.3 113.6-141-4.863-10.46-7.665-24.69 11.73-47.54-75.41 8.215-84.45 22.19-109 43.78z" fill="#fff" stroke-width="11.92"/>
 <path d="m97.19 457.6c-36.02 1.466-20.95-24.15-10.21-32.67-10.61 2.638-25.42 9.123-27 26.47-2.044 22.51 14.1 28.3 29.27 28.96 56.8 2.484 70.25-34.84 46.42-57.4-1.95 33.54-19.3 33.88-38.48 34.66z" fill="#fff" stroke-width="11.92"/>
 <path d="m282.4 289.4-6.204-7.101c25.22 2.21 47.84-13.71 79.43-18.3 8.979 8.705 36.89 32.69 76.69 59.02-34 8.737-66.11-17.16-95.63-43.17-16.95 10.25-41.98 12.37-54.29 9.562z" fill="#fff" stroke-width="11.92"/>
 <path d="m215.7 302.5c-3.426 10.14-26.3 28.28-37.32 36.08 1.212 2.524 9.961 6.8 35.26 3.712 31.62-3.86 6.343-52.47 2.06-39.79z" fill="#fff" stroke="#2f1c1c" stroke-width=".7366"/>
 <path d="m203.4 364.4c54.44 3.138 32.84-68.5 23.29-80.73-11.04-14.14-82.67 13.62-95.36 26.31-12.69 12.69 6.607 50.65 72.07 54.42z" fill="#2f1c1c" stroke="#2f1c1c" stroke-width="2.21"/>
 <path d="m109.2 326.6c0.4495-1.818 4.016-5.862 9.065-7.731 6.311-2.335 10.08-0.0904 13.93 0.9124" stroke="#2f1c1c" stroke-width="8.838"/>
 <path d="m77.33 318.2-4.05 8.168c-0.3686 0.7434 0.4237 1.526 1.168 1.155l7.519-3.749c0.1717-0.0856 0.31-0.2248 0.3933-0.3973l2.768-5.711c0.09396-0.1939 0.2575-0.3462 0.4583-0.4259l65.77-26.32c0.1291-0.0523 0.269-0.0726 0.4076-0.0583l11.6 1.11c0.1207 0.0108 0.2415-2e-3 0.3574-0.0405l10.62-3.516c0.7902-0.2617 0.7926-1.374 4e-3 -1.639l-11.13-3.736c-0.1984-0.0666-0.4148-0.0595-0.6085 0.019l-84.84 34.72c-0.1956 0.0797-0.3551 0.2284-0.4487 0.4175z" fill="#2f1c1c" stroke="#2f1c1c" stroke-width="2.6"/>
 <path d="m64.69 332.8c10.26-9.241 17.9-11.02 28.24-14.02 39.98-7.141 15.14 53.71-5.087 56.09-3.824 0.4496-14.44 5.366-19.26 7.769-6.452-10.15-14.16-40.6-3.894-49.84z" fill="#2f1c1c" stroke="#2f1c1c" stroke-width="2.21"/>
 <path d="m371.8 252.6-158.1 27.08 8.324 4.756 143-28.24z" fill="#2f1c1c" stroke="#2f1c1c" stroke-width="2.21"/>
 <path d="m179.7 497.1c22.48-3.415 44.91-14.16 58.64-23.36 8.282-5.55 22.05-21.23 34.45-36.6-11.21-6.89-36.1-13.19-45.96 16.72-9.868 29.91-26.84 37.41-47.13 43.24z" fill="#fff" stroke-width="11.92"/>
 <path d="m218.8 289.4c-6.998-3.993-19.95-1.298-25.55 0.5484-21.46 6.503-74.77 21.58-51.27 42.9-0.11-31.67 59.45-25.08 89.25-17.82-1.229-6.879-5.437-21.64-12.44-25.63z" fill="#fff" stroke="#fff" stroke-width="2.21"/>
 <path d="m101.9 321.7c9.81 1.366 11.12 9.842 8.176 19.15-3.493-13.09-6.916-15.44-17.85-11.77-10.2 3.425-19.07 12.54-28 29.08-1.348-5.827-1.986-10.58 0.3684-18.03 2.943-9.311 25.04-20.14 37.3-18.43z" fill="#fff" stroke="#fff" stroke-width="2.21"/>
 <defs>
  <linearGradient id="b" x1="19.65" x2="25.93" y1="33.03" y2="43.77" gradientTransform="matrix(11.96 0 0 11.9 -14.59 -14.56)" gradientUnits="userSpaceOnUse">
   <stop stop-color="#F83D31" offset="0"/>
   <stop stop-color="#A92820" offset=".863"/>
  </linearGradient>
  <linearGradient id="a" x1="9.414" x2="26.95" y1="7.265" y2="35.57" gradientTransform="matrix(11.96 0 0 11.9 -14.59 -14.56)" gradientUnits="userSpaceOnUse">
   <stop stop-color="#F83D31" offset="0"/>
   <stop stop-color="#A32B24" offset="1"/>
  </linearGradient>
 </defs>
 
</svg>