<svg width="60" height="60" viewBox="0 0 60 60" fill="none" xmlns="http://www.w3.org/2000/svg">
<path d="M34.9999 14.8C43.3999 18.8 53.6999 27.5001 52.6999 40.4001C51.9999 50.9001 41.4999 58.2001 29.2999 58.2001C17.0999 58.2001 6.59994 51 5.89994 40.5C5.09994 27.5 15.4999 18 23.5999 14.9" stroke="#FF094A" stroke-width="2" stroke-miterlimit="22.9256" stroke-linecap="round" stroke-linejoin="round"/>
<path d="M23.0998 14.8C21.7998 14.8 20.7998 13.8 20.7998 12.5C20.7998 11.2 21.7998 10.2 23.0998 10.2H34.1998C35.4998 10.2 36.4998 11.2 36.4998 12.5C36.4998 13.8 35.4998 14.8 34.1998 14.8H29.3998" stroke="#FF094A" stroke-width="2" stroke-miterlimit="22.9256" stroke-linecap="round" stroke-linejoin="round"/>
<path d="M22.8999 9.29998L17.8999 2.59998" stroke="#FF094A" stroke-width="2" stroke-miterlimit="22.9256" stroke-linecap="round" stroke-linejoin="round"/>
<path d="M38.7998 5.09998L40.6998 2.59998" stroke="#FF094A" stroke-width="2" stroke-miterlimit="22.9256" stroke-linecap="round" stroke-linejoin="round"/>
<path d="M29.2998 1.5C31.4998 1.5 31.6998 2.6 33.6998 2.6C35.6998 2.6 35.9998 1.5 37.8998 1.5C39.6998 1.5 40.6998 2.6 40.6998 2.6" stroke="#FF094A" stroke-width="2" stroke-miterlimit="22.9256" stroke-linecap="round" stroke-linejoin="round"/>
<path d="M29.2999 1.5C27.0999 1.5 26.8999 2.6 24.8999 2.6C22.8999 2.6 22.5999 1.5 20.6999 1.5C18.8999 1.5 17.8999 2.6 17.8999 2.6" stroke="#FF094A" stroke-width="2" stroke-miterlimit="22.9256" stroke-linecap="round" stroke-linejoin="round"/>
<path d="M25.3999 27.2V45.7999" stroke="#FF094A" stroke-width="2" stroke-miterlimit="22.9256" stroke-linecap="round" stroke-linejoin="round"/>
<path d="M25.4 27.2H31.7C34.1 27.2 36 29.1 36 31.5C36 33.9 34.1 35.7999 31.7 35.7999H22.5" stroke="#FF094A" stroke-width="2" stroke-miterlimit="22.9256" stroke-linecap="round" stroke-linejoin="round"/>
<path d="M31.5001 40.1H22.6001" stroke="#FF094A" stroke-width="2" stroke-miterlimit="22.9256" stroke-linecap="round" stroke-linejoin="round"/>
</svg>
