<svg width="60" height="60" viewBox="0 0 60 60" fill="none" xmlns="http://www.w3.org/2000/svg">
<path d="M45.4629 2.08752C48.0207 2.08752 49.7237 2.94703 50.79 4.17249C51.8617 5.4043 52.3154 7.035 52.3154 8.61487C52.3154 11.1792 51.2869 13.2591 49.6729 14.8512L49.2393 15.2789H56.25C58.1828 15.2789 59.7499 16.8461 59.75 18.7789V29.7535H56.0137V54.4127C56.0136 56.3455 54.4464 57.9127 52.5137 57.9127H7.5332C5.60034 57.9127 4.03331 56.3455 4.0332 54.4127V29.7545H0.25V18.7799C0.250063 16.8471 1.81717 15.2799 3.75 15.2799H10.8779L10.4336 14.8502C8.78584 13.2572 7.73052 11.1769 7.73047 8.61584C7.73047 7.036 8.18421 5.40527 9.25586 4.17346C10.3222 2.94801 12.0252 2.0885 14.583 2.0885C17.9395 2.08857 21.0877 3.87749 23.751 6.20862C26.4104 8.53645 28.5559 11.3789 29.9023 13.4244L30.1113 13.7418L30.3203 13.4244C31.667 11.3766 33.7685 8.53436 36.3838 6.20667C39.0025 3.87595 42.1067 2.08761 45.4629 2.08752ZM7.2832 54.6617H28.375V29.7535H7.2832V54.6617ZM31.625 54.6617H52.7646V29.7535H31.625V54.6617ZM3.5 26.5035H28.375V18.5289H3.5V26.5035ZM31.625 26.5035H56.5V18.5289H31.625V26.5035ZM45.4629 5.3385C43.0379 5.33859 40.6416 6.76031 38.5391 8.63831C36.4297 10.5224 34.5778 12.9002 33.2393 14.8883L32.9766 15.278H39.7939C42.0182 15.278 44.3221 14.7076 46.0781 13.5953C47.8385 12.4802 49.0654 10.8061 49.0654 8.61584C49.0654 7.5502 48.7972 6.7122 48.1777 6.14709C47.5632 5.58654 46.6504 5.3385 45.4629 5.3385ZM14.583 5.3385C13.3987 5.3385 12.4864 5.57106 11.8711 6.11584C11.2491 6.66665 10.9805 7.49125 10.9805 8.55627C10.9805 10.7501 12.2548 12.4384 14.0566 13.566C15.8554 14.6918 18.2026 15.2769 20.4277 15.277H27.2471L26.9854 14.8873C25.6454 12.8977 23.7486 10.52 21.5947 8.63635C19.4481 6.759 17.0072 5.3386 14.583 5.3385Z" fill="#FF094A" stroke="black" stroke-width="0.5"/>
</svg>
