<svg width="318" height="127" viewBox="0 0 318 127" fill="none" xmlns="http://www.w3.org/2000/svg">
<path d="M263.858 75.6094H238.03L236.574 87.7559C237.41 87.3852 238.484 87.0053 239.787 86.6152C241.585 86.0495 243.586 85.7695 245.784 85.7695C248.967 85.7695 251.807 86.2308 254.297 87.1621C256.783 88.0922 258.897 89.4477 260.631 91.2285L260.795 91.3965C262.478 93.1464 263.757 95.2622 264.634 97.7354C265.539 100.288 265.988 103.167 265.988 106.365C265.988 109.077 265.536 111.668 264.632 114.134V114.136C263.725 116.581 262.348 118.774 260.504 120.713L260.502 120.716C258.649 122.636 256.328 124.142 253.551 125.236C250.76 126.336 247.472 126.879 243.699 126.879C240.872 126.879 238.133 126.488 235.484 125.704H235.482C232.859 124.919 230.488 123.753 228.374 122.209L228.371 122.208C226.282 120.66 224.6 118.786 223.328 116.591L223.326 116.588L223.325 116.585C222.076 114.347 221.427 111.806 221.366 108.973L221.356 108.538H234.931L234.971 108.923C235.143 110.577 235.599 111.987 236.328 113.161C237.086 114.307 238.077 115.187 239.304 115.809C240.527 116.429 241.972 116.746 243.654 116.746C245.223 116.746 246.535 116.467 247.607 115.931C248.694 115.387 249.569 114.639 250.236 113.682C250.913 112.685 251.412 111.524 251.727 110.192V110.189L251.728 110.187C252.073 108.82 252.248 107.341 252.248 105.747C252.248 104.158 252.045 102.728 251.645 101.453C251.246 100.184 250.638 99.0958 249.824 98.1826C249.017 97.2768 247.983 96.5731 246.715 96.0752L246.712 96.0742C245.479 95.5795 244.02 95.3252 242.323 95.3252C239.997 95.3252 238.255 95.6645 237.052 96.2988L236.822 96.4248C235.687 97.062 234.736 97.7771 233.966 98.5674L233.784 98.7539L222.921 96.3398L226.694 65.1465H263.858V75.6094ZM85.6963 64.3213C89.8331 64.3213 93.6082 65.004 97.0146 66.377C100.448 67.7489 103.402 69.7383 105.872 72.3418C108.372 74.9454 110.293 78.0892 111.642 81.7646L111.769 82.1094C113.064 85.6804 113.709 89.7115 113.709 94.1973V97.0439C113.709 101.647 113.038 105.791 111.688 109.473C110.339 113.149 108.432 116.293 105.962 118.897L105.961 118.899C103.491 121.476 100.536 123.45 97.1035 124.822L96.4609 125.071C93.2241 126.278 89.6637 126.878 85.7852 126.878C81.677 126.878 77.9018 126.195 74.4668 124.822H74.4648C71.0619 123.45 68.1091 121.476 65.6104 118.901L65.6084 118.899C63.1086 116.296 61.1721 113.152 59.7939 109.476L59.793 109.473C58.4429 105.791 57.7715 101.647 57.7715 97.0439V94.1973C57.7715 89.5677 58.4425 85.4223 59.793 81.7676C61.1411 78.0918 63.0485 74.9479 65.5186 72.3438L65.5205 72.3418C68.0193 69.7392 70.9719 67.7492 74.376 66.377H74.3779C77.813 65.0045 81.5881 64.3213 85.6963 64.3213ZM295.391 64.3213C298.031 64.3213 300.485 64.6422 302.75 65.2871C305.052 65.9065 307.13 66.8792 308.981 68.2051C310.837 69.5342 312.413 71.2404 313.711 73.3164L313.951 73.7061C315.135 75.6772 316.046 77.9965 316.691 80.6572C317.381 83.4722 317.724 86.6946 317.724 90.3203V100.715C317.724 105.253 317.203 109.186 316.152 112.508L316.151 112.509C315.102 115.799 313.581 118.523 311.577 120.668L311.203 121.058C309.312 122.974 307.084 124.411 304.523 125.363C301.8 126.376 298.784 126.878 295.479 126.878C292.838 126.878 290.369 126.571 288.075 125.954L288.069 125.953C285.768 125.306 283.69 124.305 281.84 122.951L281.837 122.949C280.016 121.595 278.443 119.891 277.116 117.846L277.113 117.84C275.813 115.76 274.821 113.298 274.133 110.46C273.443 107.618 273.102 104.368 273.102 100.715V90.3203C273.102 85.7826 273.622 81.8752 274.674 78.6074L274.675 78.6055C275.754 75.3174 277.275 72.6071 279.248 70.4902L279.25 70.4883C281.187 68.4426 283.469 66.921 286.095 65.9297L286.35 65.835C289.072 64.8234 292.088 64.3213 295.391 64.3213ZM223.422 96.0127L233.627 98.2812C234.485 97.4015 235.55 96.618 236.821 95.9307C238.123 95.2432 239.957 94.8994 242.323 94.8994L242.647 94.9023C244.258 94.9329 245.673 95.1928 246.894 95.6826C248.225 96.205 249.319 96.9478 250.177 97.9102C251.034 98.8724 251.671 100.013 252.085 101.333C252.499 102.653 252.706 104.125 252.706 105.747C252.706 107.369 252.529 108.882 252.174 110.284L252.11 110.54C251.783 111.81 251.286 112.934 250.62 113.914L250.485 114.102C249.794 115.03 248.907 115.765 247.825 116.307L247.606 116.411C246.497 116.919 245.179 117.172 243.654 117.172L243.33 117.168C241.827 117.132 240.494 116.844 239.331 116.303L239.084 116.183C237.783 115.523 236.733 114.588 235.935 113.378C235.166 112.141 234.691 110.669 234.514 108.965H221.824C221.883 111.742 222.52 114.217 223.732 116.389C224.975 118.533 226.616 120.362 228.657 121.874C230.728 123.386 233.05 124.528 235.623 125.298C238.063 126.02 240.582 126.403 243.179 126.448L243.699 126.453C247.31 126.453 250.448 125.95 253.115 124.943L253.372 124.845C256.008 123.806 258.214 122.392 259.99 120.604L260.16 120.431C261.965 118.533 263.311 116.388 264.198 113.996C265.03 111.728 265.472 109.35 265.524 106.864L265.529 106.365C265.529 103.203 265.086 100.371 264.198 97.8691C263.311 95.367 262.01 93.2489 260.294 91.5166C258.713 89.8926 256.807 88.6314 254.576 87.7324L254.126 87.5566C251.7 86.6493 248.92 86.1963 245.784 86.1963C243.625 86.1963 241.673 86.4716 239.928 87.0215L239.294 87.2158C237.864 87.667 236.773 88.0968 236.022 88.5059L237.62 75.1826H263.399V65.5723H227.104L223.422 96.0127ZM85.6963 64.7471C81.6437 64.7471 77.9308 65.4212 74.5586 66.7686L74.2471 66.8965C71.0359 68.2384 68.2407 70.1486 65.8623 72.626L65.6367 72.8672C63.32 75.377 61.5171 78.39 60.2275 81.9062C58.8965 85.5083 58.2305 89.6053 58.2305 94.1973V97.0439L58.2324 97.4697C58.2727 101.863 58.938 105.819 60.2275 109.335C61.5882 112.965 63.496 116.058 65.9512 118.615C68.4063 121.145 71.3049 123.084 74.6475 124.432C77.9141 125.737 81.5002 126.409 85.4053 126.45L85.7852 126.452C89.8671 126.452 93.5794 125.779 96.9219 124.432C100.189 123.126 103.011 121.266 105.39 118.851L105.618 118.615C107.968 116.138 109.804 113.157 111.127 109.674L111.254 109.335C112.543 105.819 113.208 101.863 113.248 97.4697L113.25 97.0439V94.1973C113.25 89.6054 112.57 85.5083 111.209 81.9062C109.878 78.2766 107.984 75.1833 105.529 72.626C103.104 70.0687 100.205 68.1159 96.833 66.7686C93.5949 65.4633 90.0093 64.7898 86.0771 64.749L85.6963 64.7471ZM295.391 64.7471C292.137 64.7471 289.178 65.2425 286.516 66.2324C283.854 67.1948 281.547 68.7074 279.595 70.7695L279.415 70.9648C277.579 72.9985 276.145 75.5873 275.113 78.7305L275.018 79.0332C274.046 82.189 273.56 85.9517 273.56 90.3203V100.715L273.563 101.39C273.603 104.744 273.942 107.737 274.58 110.366C275.26 113.171 276.237 115.591 277.509 117.626C278.81 119.633 280.349 121.296 282.124 122.616C283.928 123.936 285.954 124.912 288.202 125.545C290.31 126.112 292.574 126.414 294.993 126.449L295.479 126.452C298.631 126.452 301.506 125.988 304.103 125.059L304.354 124.968C307.016 123.978 309.308 122.452 311.23 120.39C313.183 118.3 314.677 115.631 315.712 112.387C316.682 109.319 317.198 105.708 317.259 101.553L317.266 100.715V90.3203C317.266 86.7182 316.925 83.5282 316.245 80.751C315.565 77.9464 314.588 75.5405 313.316 73.5332C312.124 71.6256 310.697 70.0442 309.037 68.7891L308.701 68.542C307.01 67.3305 305.123 66.4208 303.042 65.8135L302.623 65.6963C300.405 65.0639 297.994 64.7471 295.391 64.7471ZM175.913 126.054H161.686V75.6924H136.646V126.054H122.417V65.1465H175.913V126.054ZM54.2939 75.6914H34.416V126.053H20.2324V75.6914H0.665039V65.1455H54.2939V75.6914ZM122.876 125.628H136.187V75.2656H162.144V125.628H175.455V65.5723H122.876V125.628ZM1.12305 75.2646H20.6904V125.627H33.958V75.2646H53.8359V65.5713H1.12305V75.2646ZM295.605 74.0303C296.675 74.0496 297.654 74.2131 298.541 74.5225C299.488 74.8524 300.331 75.375 301.07 76.0898C301.81 76.8047 302.431 77.7398 302.934 78.8945C303.436 80.0219 303.806 81.3972 304.043 83.0195C304.309 84.6419 304.442 86.5396 304.442 88.7119V102.282L304.44 102.787C304.418 105.291 304.226 107.432 303.865 109.211C303.481 111.108 302.889 112.649 302.091 113.831C301.322 114.986 300.375 115.838 299.251 116.388L299.044 116.483C297.999 116.943 296.81 117.172 295.479 117.172L295.264 117.17C294.264 117.152 293.332 117.008 292.469 116.737L292.284 116.677C291.338 116.347 290.494 115.824 289.755 115.109C289.045 114.367 288.424 113.418 287.892 112.264C287.389 111.081 287.004 109.665 286.738 108.016C286.502 106.366 286.383 104.454 286.383 102.282V88.7119C286.383 86.0174 286.575 83.735 286.96 81.8652C287.348 80.0864 287.893 78.645 288.593 77.543L288.734 77.3281C289.503 76.1732 290.436 75.334 291.53 74.8115C292.654 74.2891 293.941 74.0283 295.391 74.0283L295.605 74.0303ZM295.391 74.4541C294.003 74.4541 292.789 74.7032 291.739 75.1904L291.552 75.2842C290.623 75.77 289.813 76.5195 289.125 77.5518L289.122 77.5557C288.393 78.6241 287.817 80.082 287.409 81.9492C287.032 83.7835 286.842 86.0361 286.842 88.7119V102.282C286.842 104.438 286.959 106.327 287.191 107.952L287.242 108.254C287.501 109.748 287.86 111.029 288.315 112.101C288.832 113.22 289.428 114.125 290.096 114.824C290.788 115.491 291.571 115.973 292.445 116.278L292.794 116.387C293.619 116.625 294.513 116.746 295.479 116.746C296.838 116.746 298.021 116.496 299.041 116.009C300.081 115.499 300.97 114.705 301.701 113.606L301.702 113.604C302.461 112.481 303.037 110.996 303.415 109.133C303.793 107.27 303.983 104.988 303.983 102.282V88.7119C303.983 86.5548 303.852 84.6795 303.59 83.084L303.589 83.0801V83.0771C303.356 81.4797 302.993 80.1418 302.51 79.0576L302.509 79.0547C302.022 77.9378 301.429 77.0529 300.739 76.3857C300.045 75.7142 299.259 75.2282 298.38 74.9219C297.492 74.6123 296.497 74.4541 295.391 74.4541ZM86.1143 74.6104C88.1923 74.6603 90.0504 75.0847 91.6865 75.8838C93.4315 76.7087 94.9104 77.9461 96.123 79.5957C97.3358 81.2456 98.2528 83.2814 98.874 85.7012C99.4951 88.1208 99.8057 90.9257 99.8057 94.1152V97.0439L99.8027 97.6328C99.7663 100.555 99.4563 103.164 98.874 105.458C98.2529 107.878 97.351 109.926 96.168 111.604C94.9848 113.253 93.5197 114.505 91.7744 115.357L91.4443 115.512C89.7789 116.261 87.8925 116.636 85.7852 116.636L85.3662 116.631C83.4266 116.584 81.6796 116.211 80.125 115.512L79.7949 115.357C78.0497 114.505 76.5702 113.253 75.3574 111.604C74.1447 109.926 73.2276 107.878 72.6064 105.458C72.0241 103.164 71.7151 100.555 71.6787 97.6328L71.6748 97.0439V94.1152C71.6748 91.1251 71.9473 88.4727 72.4932 86.1592L72.6064 85.7012C73.2276 83.2814 74.1293 81.2456 75.3125 79.5957C76.5253 77.9459 77.9904 76.7087 79.7061 75.8838C81.4512 75.0315 83.4483 74.6055 85.6963 74.6055L86.1143 74.6104ZM85.6963 75.0312C83.512 75.0312 81.5897 75.4457 79.9189 76.2617L79.917 76.2627C78.276 77.0517 76.8663 78.2386 75.6914 79.8369C74.5463 81.435 73.6639 83.4192 73.0527 85.7998C72.4418 88.1795 72.1328 90.9501 72.1328 94.1152V97.0439C72.1328 100.181 72.4415 102.952 73.0527 105.36C73.6637 107.74 74.5615 109.738 75.7363 111.363C76.9107 112.961 78.3348 114.163 80.0078 114.98C81.6785 115.796 83.6009 116.21 85.7852 116.21C87.9692 116.21 89.8909 115.796 91.5615 114.98C93.2334 114.164 94.6419 112.963 95.7861 111.367C96.9332 109.74 97.8164 107.741 98.4277 105.359C99.0388 102.951 99.3476 100.181 99.3477 97.0439V94.1152C99.3476 90.9501 99.0386 88.1795 98.4277 85.7998C97.8165 83.4187 96.9187 81.4347 95.7441 79.8369C94.5704 78.2403 93.1485 77.0531 91.4785 76.2637L91.4727 76.2617C89.802 75.4458 87.8804 75.0313 85.6963 75.0312ZM211.944 104.937H185.958V94.7617H211.944V104.937ZM186.416 104.51H211.485V95.1875H186.416V104.51ZM85.6924 0.0322266C89.7744 0.0322299 93.4865 0.706364 96.8291 2.05371C100.201 3.4011 103.101 5.35286 105.526 7.91016C107.981 10.4674 109.875 13.5608 111.206 17.1904C112.567 20.7926 113.247 24.8903 113.247 29.4824V32.3281C113.247 36.8928 112.581 40.9904 111.25 44.6201C109.919 48.2497 108.041 51.3432 105.615 53.9004C103.19 56.4302 100.29 58.3684 96.918 59.7158C93.5754 61.0632 89.8633 61.7373 85.7812 61.7373C81.7287 61.7373 78.0157 61.0632 74.6436 59.7158C71.3012 58.3684 68.4023 56.4301 65.9473 53.9004C63.4921 51.3432 61.5843 48.2497 60.2236 44.6201C58.8925 40.9904 58.2266 36.8928 58.2266 32.3281V29.4824C58.2266 24.8903 58.8925 20.7926 60.2236 17.1904C61.5548 13.5609 63.4329 10.4674 65.8584 7.91016C68.3136 5.35287 71.2131 3.4011 74.5557 2.05371C77.9278 0.706376 81.6399 0.0322266 85.6924 0.0322266ZM263.399 10.4678H237.62L236.022 23.791C236.88 23.3236 238.182 22.8281 239.928 22.3057C241.673 21.7558 243.625 21.4805 245.784 21.4805C248.92 21.4805 251.7 21.9344 254.126 22.8418C256.552 23.7492 258.608 25.0694 260.294 26.8018C262.009 28.534 263.311 30.6512 264.198 33.1533C265.086 35.6556 265.529 38.4881 265.529 41.6504C265.529 44.3177 265.086 46.8614 264.198 49.2812C263.311 51.6735 261.965 53.8185 260.16 55.7158C258.356 57.5855 256.093 59.0566 253.372 60.1289C250.651 61.2013 247.426 61.7373 243.699 61.7373C240.919 61.7373 238.226 61.3529 235.623 60.583C233.05 59.8131 230.728 58.6715 228.657 57.1592C226.616 55.6468 224.975 53.8177 223.732 51.6729C222.52 49.5006 221.883 47.0262 221.824 44.249H234.514C234.691 45.9537 235.165 47.4248 235.934 48.6621C236.732 49.8719 237.783 50.8069 239.084 51.4668C240.385 52.1267 241.909 52.457 243.654 52.457C245.281 52.457 246.672 52.1682 247.825 51.5908C248.979 51.0134 249.911 50.2157 250.621 49.1982C251.331 48.1534 251.848 46.9431 252.174 45.5684C252.529 44.1661 252.706 42.6534 252.706 41.0312C252.706 39.4091 252.499 37.9379 252.085 36.6182C251.671 35.2983 251.035 34.1567 250.177 33.1943C249.319 32.2321 248.224 31.4902 246.894 30.9678C245.592 30.4453 244.068 30.1836 242.323 30.1836C239.957 30.1836 238.123 30.5274 236.821 31.2148C235.549 31.9023 234.485 32.6865 233.627 33.5664L223.421 31.2979L227.104 0.857422H263.399V10.4678ZM295.389 0.0322266C297.992 0.0322266 300.403 0.348102 302.621 0.980469C304.869 1.58542 306.896 2.53475 308.7 3.82715C310.504 5.11944 312.043 6.78278 313.314 8.81738C314.586 10.8247 315.563 13.2314 316.243 16.0361C316.923 18.8134 317.264 22.0033 317.264 25.6055V35.999C317.264 40.5085 316.746 44.3997 315.711 47.6719C314.676 50.9165 313.182 53.584 311.229 55.6738C309.307 57.7362 307.014 59.262 304.352 60.252C301.689 61.2418 298.731 61.7373 295.478 61.7373C292.875 61.7373 290.449 61.435 288.201 60.8301C285.953 60.1976 283.926 59.2213 282.122 57.9014C280.347 56.5815 278.809 54.9175 277.508 52.9102C276.236 50.8754 275.259 48.456 274.579 45.6514C273.899 42.8466 273.559 39.6287 273.559 35.999V25.6055C273.559 21.0958 274.076 17.2319 275.111 14.0146C276.176 10.7701 277.67 8.11695 279.593 6.05469C281.545 3.99243 283.853 2.48001 286.515 1.51758C289.177 0.527692 292.135 0.0322605 295.389 0.0322266ZM53.835 10.5508H33.9561V60.9121H20.6895V10.5508H1.12207V0.857422H53.835V10.5508ZM175.456 60.9121H162.145V10.5508H136.188V60.9121H122.877V0.857422H175.456V60.9121ZM295.389 9.3125C293.939 9.31254 292.652 9.57426 291.528 10.0967C290.434 10.6191 289.502 11.4576 288.733 12.6123C287.964 13.7397 287.373 15.2522 286.959 17.1494C286.574 19.0192 286.382 21.3015 286.382 23.9961V37.5664C286.382 39.7386 286.5 41.65 286.736 43.2998C287.003 44.9497 287.388 46.3664 287.891 47.5488C288.423 48.7035 289.044 49.6522 289.754 50.3945C290.493 51.1094 291.337 51.632 292.283 51.9619C293.259 52.2918 294.324 52.457 295.478 52.457C296.897 52.457 298.155 52.1953 299.249 51.6729C300.373 51.123 301.32 50.2709 302.089 49.1162C302.888 47.9338 303.48 46.3934 303.864 44.4961C304.249 42.5988 304.44 40.2886 304.44 37.5664V23.9961C304.44 21.824 304.307 19.9269 304.041 18.3047C303.804 16.6823 303.435 15.3071 302.932 14.1797C302.429 13.0249 301.808 12.0899 301.068 11.375C300.329 10.6601 299.486 10.1376 298.539 9.80762C297.593 9.47771 296.542 9.3125 295.389 9.3125ZM85.6924 9.89062C83.4443 9.89062 81.4474 10.3165 79.7021 11.1689C77.9866 11.9939 76.5223 13.2311 75.3096 14.8809C74.1264 16.5307 73.2237 18.5656 72.6025 20.9854C71.9814 23.405 71.6709 26.2099 71.6709 29.3994V32.3281C71.6709 35.4904 71.9813 38.2959 72.6025 40.7432C73.2237 43.1628 74.1408 45.2114 75.3535 46.8887C76.5663 48.5385 78.0458 49.7892 79.791 50.6416C81.5363 51.494 83.5331 51.9209 85.7812 51.9209C88.0293 51.9209 90.0263 51.494 91.7715 50.6416C93.5166 49.7892 94.9809 48.5384 96.1641 46.8887C97.3472 45.2114 98.2489 43.1627 98.8701 40.7432C99.4913 38.2959 99.8027 35.4904 99.8027 32.3281V29.3994C99.8027 26.2099 99.4913 23.405 98.8701 20.9854C98.2489 18.5657 97.3319 16.5307 96.1191 14.8809C94.9064 13.2312 93.4277 11.9938 91.6826 11.1689C89.9374 10.3165 87.9405 9.89063 85.6924 9.89062ZM211.484 39.793H186.415V30.4717H211.484V39.793Z" fill="url(#paint0_linear_76_246)"/>
<defs>
<linearGradient id="paint0_linear_76_246" x1="159" y1="-31" x2="159.633" y2="117.754" gradientUnits="userSpaceOnUse">
<stop stop-color="white" stop-opacity="0"/>
<stop offset="0.543269" stop-color="white"/>
<stop offset="1" stop-color="white" stop-opacity="0"/>
</linearGradient>
</defs>
</svg>
