<svg viewBox="0 0 318.421 192.95" xmlns="http://www.w3.org/2000/svg" xmlns:xlink="http://www.w3.org/1999/xlink" width="318.420898" height="192.950195" fill="none" customFrame="#000000">
	<defs>
		<linearGradient id="paint_linear_1" x1="159.209961" x2="159.209961" y1="34.0706596" y2="179.072144" gradientUnits="userSpaceOnUse">
			<stop stop-color="rgb(255,255,255)" offset="0" stop-opacity="0" />
			<stop stop-color="rgb(255,255,255)" offset="0.543269217" stop-opacity="1" />
			<stop stop-color="rgb(255,255,255)" offset="1" stop-opacity="0" />
		</linearGradient>
	</defs>
	<path id="Union" d="M246.943 10.9479C245.87 10.4111 244.559 10.1328 242.99 10.1327C241.307 10.1327 239.862 10.4501 238.639 11.0703C237.412 11.6924 236.421 12.5723 235.663 13.7177C234.934 14.8922 234.477 16.3011 234.305 17.9555L234.265 18.3405L220.691 18.3405L220.701 17.906C220.761 15.0722 221.411 12.5316 222.66 10.2938L222.661 10.2909L222.663 10.288C223.935 8.0927 225.617 6.21943 227.706 4.67105L227.709 4.66938C229.823 3.12498 232.194 1.96014 234.818 1.17515L234.819 1.17473C237.468 0.391262 240.207 0 243.034 0C246.807 1.52588e-05 250.095 0.542351 252.886 1.64205C255.663 2.73652 257.983 4.24275 259.836 6.16329L259.839 6.16579C261.683 8.10493 263.059 10.2984 263.966 12.7435L263.967 12.7448C264.871 15.2108 265.323 17.8011 265.323 20.5131C265.323 23.7118 264.874 26.5903 263.969 29.1432C263.091 31.6165 261.814 33.7325 260.13 35.4825L259.966 35.6506C258.232 37.4314 256.118 38.787 253.632 39.717C251.142 40.6484 248.302 41.109 245.119 41.109C242.921 41.1089 240.92 40.8292 239.122 40.2634C237.819 39.8732 236.744 39.4939 235.909 39.1232L237.365 51.2696L263.193 51.2696L263.193 61.7323L226.03 61.7323L222.255 30.5393L233.119 28.1245L233.301 28.3113C234.072 29.1016 235.022 29.8163 236.157 30.4536L236.387 30.5801C237.59 31.2144 239.332 31.5534 241.658 31.5534C243.355 31.5534 244.814 31.2995 246.047 30.8048L246.05 30.8035C247.319 30.3056 248.352 29.6025 249.159 28.6967C249.973 27.7834 250.581 26.6955 250.98 25.4259C251.38 24.151 251.583 22.7209 251.583 21.1319C251.583 19.5383 251.408 18.0589 251.062 16.6922L251.062 16.6893L251.061 16.6864C250.746 15.3549 250.247 14.1936 249.571 13.1967C248.903 12.2397 248.029 11.4916 246.943 10.9479ZM315.487 14.3714C316.538 17.6929 317.059 21.6262 317.059 26.1641L317.059 36.5586C317.059 40.1843 316.716 43.4065 316.027 46.2215C315.382 48.8823 314.47 51.2014 313.286 53.1726L313.046 53.562C311.748 55.6384 310.172 57.345 308.316 58.6742C306.465 60 304.387 60.9723 302.085 61.5917C299.82 62.2366 297.366 62.5575 294.725 62.5575C291.422 62.5575 288.407 62.0552 285.685 61.0436L285.43 60.9496C282.804 59.9582 280.522 58.4366 278.585 56.3909L278.583 56.3884C276.609 54.2715 275.089 51.5613 274.009 48.273L274.009 48.271C272.957 45.0032 272.436 41.0963 272.436 36.5586L272.436 26.1641C272.436 22.5108 272.779 19.2611 273.468 16.4188C274.157 13.5808 275.148 11.1187 276.448 9.03917L276.451 9.03334C277.778 6.98757 279.351 5.28412 281.172 3.92952L281.175 3.92744C283.025 2.57397 285.103 1.57337 287.404 0.9259L287.41 0.924652C289.704 0.307384 292.173 0.000427246 294.814 0.000427246C298.119 0.00044632 301.135 0.502995 303.859 1.51556C306.59 2.53134 308.943 4.09832 310.912 6.21074L310.912 6.21116C312.915 8.35589 314.437 11.0801 315.487 14.3702L315.487 14.3714ZM111.022 17.4063C112.372 21.0877 113.043 25.2325 113.043 29.8352L113.043 32.6811C113.043 37.1671 112.399 41.1985 111.104 44.7697L110.977 45.1138C109.628 48.7896 107.706 51.9333 105.206 54.537C102.737 57.1405 99.783 59.1295 96.3498 60.5014L96.3502 60.5014C92.9436 61.8746 89.1682 62.5575 85.031 62.5575C80.9227 62.5575 77.1477 61.8743 73.7126 60.5018L73.7113 60.5014C70.307 59.1292 67.3539 57.1398 64.855 54.537L64.8532 54.535C62.3832 51.9308 60.4764 48.7871 59.1283 45.1113C57.7777 41.4565 57.1067 37.311 57.1067 32.6811L57.1067 29.8352C57.1067 25.2325 57.7777 21.0877 59.1278 17.4063L59.1292 17.4034C60.5073 13.7273 62.4438 10.5835 64.9437 7.9797L64.9454 7.97762C67.4442 5.40293 70.3969 3.4283 73.7999 2.05652L73.8013 2.05611C77.2363 0.683594 81.0113 0.000431061 85.1196 0.000431061C89.2568 0.000442505 93.0322 0.683331 96.4389 2.05653L96.4384 2.05694C99.8713 3.42875 102.825 5.40333 105.296 7.97971L105.297 7.98137C107.767 10.5857 109.674 13.73 111.022 17.4063ZM263.533 29.01C264.42 26.5077 264.864 23.6753 264.864 20.5131L264.859 20.0146C264.807 17.5284 264.365 15.1511 263.533 12.8825C262.646 10.4902 261.3 8.34527 259.495 6.44792L259.325 6.27398C257.549 4.4867 255.343 3.07336 252.707 2.03446L252.45 1.93542C249.783 0.928978 246.645 0.426132 243.034 0.426117L242.513 0.430279C239.917 0.475407 237.399 0.859081 234.958 1.58088C232.385 2.35081 230.063 3.49199 227.992 5.00437C225.951 6.51674 224.309 8.34538 223.067 10.4902C221.854 12.6625 221.218 15.1372 221.159 17.9144L233.849 17.9144C234.027 16.2096 234.5 14.7386 235.269 13.5013C236.068 12.2914 237.118 11.3561 238.419 10.6962L238.666 10.5763C239.829 10.035 241.162 9.74648 242.665 9.71037L242.99 9.70662C244.515 9.70665 245.832 9.96027 246.941 10.4677L247.16 10.5726C248.242 11.114 249.128 11.8488 249.82 12.7768L249.955 12.9649C250.621 13.9445 251.118 15.0692 251.445 16.3389L251.509 16.5948C251.864 17.9971 252.041 19.5096 252.041 21.1319C252.041 22.7542 251.834 24.2255 251.42 25.5453C251.006 26.8651 250.37 28.0064 249.512 28.9688C248.654 29.9312 247.559 30.6735 246.228 31.1959C245.008 31.6857 243.593 31.946 241.983 31.9766L241.658 31.9795C239.292 31.9795 237.458 31.6358 236.156 30.9483C234.884 30.2609 233.819 29.4775 232.961 28.5976L222.756 30.8659L226.439 61.3062L262.734 61.3062L262.734 51.6957L236.955 51.6957L235.358 38.3729C236.108 38.7819 237.199 39.2122 238.629 39.6633L239.262 39.8577C241.008 40.4076 242.96 40.6828 245.119 40.6828C248.255 40.6828 251.035 40.2291 253.461 39.3217L253.911 39.1465C256.142 38.2475 258.048 36.9859 259.629 35.3618C261.344 33.6295 262.646 31.5122 263.533 29.01ZM315.58 46.1279C316.26 43.3507 316.6 40.1608 316.6 36.5586L316.6 26.1641L316.594 25.326C316.533 21.1708 316.018 17.5594 315.047 14.4917C314.012 11.247 312.518 8.57938 310.566 6.48955C308.643 4.42731 306.351 2.9012 303.688 1.9113L303.438 1.81975C300.841 0.890774 297.966 0.426563 294.814 0.426544L294.328 0.429874C291.909 0.465321 289.645 0.766571 287.537 1.33371C285.289 1.96614 283.263 2.94255 281.459 4.26242C279.684 5.5823 278.145 7.24575 276.844 9.25306C275.572 11.2879 274.596 13.7077 273.915 16.5124C273.277 19.1419 272.939 22.1342 272.899 25.4887L272.895 26.1641L272.895 36.5586C272.895 40.9272 273.381 44.6895 274.352 47.8453L274.448 48.1486C275.48 51.292 276.914 53.8807 278.75 55.9144L278.929 56.1096C280.882 58.1718 283.189 59.6842 285.851 60.6466C288.513 61.6365 291.471 62.1314 294.725 62.1314C297.328 62.1314 299.739 61.8151 301.958 61.1826L302.377 61.0653C304.458 60.4579 306.345 59.5483 308.036 58.3367L308.372 58.09C310.032 56.8348 311.459 55.2533 312.651 53.3457C313.923 51.3384 314.899 48.9325 315.58 46.1279ZM110.544 44.9727C111.905 41.3706 112.585 37.2732 112.585 32.6811L112.585 29.8352L112.583 29.4087C112.543 25.015 111.878 21.0599 110.589 17.5436L110.462 17.2049C109.139 13.7211 107.303 10.7404 104.953 8.26309L104.724 8.02798C102.346 5.61302 99.5235 3.75256 96.2567 2.44727C92.9141 1.0999 89.2017 0.426559 85.1196 0.426548L84.7405 0.428215C80.8353 0.469017 77.2493 1.14205 73.9826 2.44727C70.64 3.79465 67.7408 5.73331 65.2857 8.26308C62.8305 10.8203 60.9227 13.914 59.562 17.5436C58.2725 21.0599 57.6076 25.015 57.5673 29.4087L57.5651 29.8352L57.5651 32.6811C57.5651 37.2732 58.2309 41.3705 59.562 44.9727C60.8516 48.489 62.6547 51.502 64.9714 54.0119L65.197 54.2532C67.5754 56.7306 70.3703 58.6402 73.5815 59.9821L73.8935 60.1103C77.2657 61.4576 80.9784 62.1314 85.031 62.1314L85.4124 62.1293C89.3446 62.0885 92.9299 61.4155 96.168 60.1103C99.5401 58.7629 102.439 56.8105 104.864 54.2532C107.32 51.6959 109.213 48.6024 110.544 44.9727ZM53.6292 51.1878L33.7514 51.1877L33.7514 0.825745L19.5676 0.825741L19.5676 51.1877L9.91742e-07 51.1877L0 61.7333L53.6292 61.7333L53.6292 51.1878ZM175.251 0.825748L161.022 0.825748L161.022 51.1878L135.982 51.1878L135.982 0.825745L121.754 0.825745L121.754 61.7333L175.251 61.7333L175.251 0.825748ZM53.1708 61.3072L0.458392 61.3072L0.458393 51.6139L20.026 51.6139L20.026 1.25186L33.293 1.25186L33.293 51.6139L53.1708 51.6139L53.1708 61.3072ZM174.792 61.3072L122.213 61.3072L122.213 1.25186L135.524 1.25186L135.524 51.6139L161.481 51.6139L161.481 1.25187L174.792 1.25187L174.792 61.3072ZM294.599 9.70872L294.814 9.70705C296.145 9.70708 297.333 9.93658 298.378 10.3957L298.586 10.4906C299.71 11.0406 300.656 11.8929 301.426 13.0477C302.224 14.2301 302.816 15.7703 303.2 17.6676C303.561 19.4464 303.752 21.5876 303.775 24.0914L303.777 24.597L303.777 38.1669C303.777 40.3393 303.644 42.2368 303.378 43.8592C303.141 45.4815 302.771 46.8564 302.268 47.9838C301.766 49.1387 301.144 50.0736 300.405 50.7886C299.665 51.5035 298.822 52.0261 297.876 52.3561C296.988 52.6654 296.01 52.8295 294.94 52.8488L294.725 52.8509C293.276 52.8509 291.989 52.5897 290.865 52.0673C289.771 51.5449 288.839 50.7059 288.07 49.551L287.928 49.3354C287.227 48.2334 286.683 46.7928 286.295 45.0139C285.911 43.1441 285.718 40.8617 285.718 38.1669L285.718 24.597C285.718 22.4247 285.836 20.5134 286.073 18.8636C286.339 17.2138 286.724 15.7977 287.227 14.6153C287.759 13.4605 288.38 12.5118 289.09 11.7694C289.83 11.0544 290.673 10.5318 291.619 10.2018L291.803 10.1419C292.667 9.8712 293.599 9.72675 294.599 9.70872ZM303.319 38.1669L303.319 24.597C303.319 21.8913 303.127 19.6094 302.75 17.7463C302.372 15.8827 301.796 14.398 301.037 13.2745L301.036 13.272C300.304 12.1734 299.416 11.3793 298.376 10.8697C297.356 10.3827 296.172 10.1332 294.814 10.1332C293.71 10.1332 292.7 10.2906 291.78 10.6009C290.906 10.9058 290.123 11.3881 289.43 12.0549C288.762 12.7541 288.167 13.6585 287.65 14.7784C287.195 15.8502 286.836 17.1308 286.577 18.6247L286.526 18.9268C286.294 20.5518 286.176 22.4412 286.176 24.597L286.176 38.1669C286.176 40.8427 286.367 43.0952 286.744 44.9295C287.152 46.7967 287.728 48.2545 288.457 49.3229L288.459 49.3267C289.147 50.3593 289.958 51.1087 290.887 51.5946L291.075 51.6882C292.125 52.1755 293.338 52.4247 294.725 52.4248C295.831 52.4248 296.826 52.2667 297.715 51.957C298.594 51.6507 299.38 51.1648 300.075 50.4931C300.765 49.8259 301.357 48.9409 301.844 47.8241L301.845 47.8207C302.329 46.7365 302.69 45.3992 302.923 43.8017L302.924 43.7984L302.925 43.7947C303.187 42.1992 303.319 40.3241 303.319 38.1669ZM84.7011 10.248L85.1196 10.243C87.2272 10.243 89.1136 10.6178 90.7792 11.367L91.1096 11.5218C92.8548 12.3742 94.3192 13.6254 95.5024 15.2753C96.6856 16.9526 97.5877 19.0013 98.2089 21.4211C98.7912 23.7154 99.1009 26.3238 99.1373 29.2464L99.1409 29.8352L99.1409 32.7639C99.1409 35.9536 98.83 38.7583 98.2089 41.1781C97.5877 43.5979 96.6709 45.6328 95.4581 47.2827C94.2453 48.9325 92.7662 50.17 91.021 50.9949C89.3848 51.7941 87.5276 52.2183 85.4495 52.2683L85.031 52.2733C82.7829 52.2733 80.7858 51.8474 79.0406 50.9949C77.3249 50.17 75.8606 48.9325 74.6478 47.2827C73.4646 45.6328 72.5625 43.5978 71.9413 41.1781L71.8285 40.7199C71.2825 38.4062 71.0098 35.7543 71.0097 32.7639L71.0097 29.8352L71.0133 29.2464C71.0497 26.3238 71.359 23.7154 71.9413 21.4211C72.5625 19.0013 73.4797 16.9526 74.6925 15.2753C75.9053 13.6254 77.3844 12.3742 79.1296 11.5218L79.4596 11.367C81.0142 10.6677 82.7614 10.2946 84.7011 10.248ZM98.6825 32.7639L98.6825 29.8352C98.6825 26.6983 98.3741 23.9277 97.763 21.5197C97.1516 19.1382 96.2681 17.1387 95.121 15.5116C93.9767 13.9161 92.5684 12.7154 90.8965 11.8988C89.2258 11.0828 87.3039 10.6692 85.1196 10.6691C82.9353 10.6691 81.0135 11.0828 79.3427 11.8988C77.6696 12.716 76.2453 13.9181 75.0708 15.5158L75.0704 15.5158C73.8955 17.1416 72.9981 19.1394 72.3872 21.5189L72.3876 21.5189C71.7763 23.9271 71.4681 26.6979 71.4681 29.8352L71.4681 32.7639C71.4681 35.9291 71.7763 38.6993 72.3872 41.079C72.9983 43.4598 73.8813 45.444 75.0265 47.0421C76.2014 48.6405 77.6104 49.8273 79.2514 50.6163L79.2541 50.6175C80.9248 51.4335 82.8467 51.8472 85.031 51.8472C87.2152 51.8472 89.1367 51.4335 90.8074 50.6175L90.8133 50.615C92.4833 49.8256 93.9056 48.6388 95.0793 47.0421C96.2539 45.4443 97.1517 43.4602 97.763 41.079C98.3739 38.6993 98.6825 35.9291 98.6825 32.7639ZM211.279 21.9427L185.293 21.9427L185.293 32.1171L211.279 32.1171L211.279 21.9427ZM210.821 31.691L185.751 31.691L185.751 22.3688L210.821 22.3688L210.821 31.691ZM113.943 98.3996L113.943 95.5535C113.943 90.9614 113.263 86.8642 111.902 83.262C110.581 79.6588 108.706 76.5839 106.276 74.0375L106.276 74.0366C106.258 74.0182 106.241 73.9999 106.223 73.9815C103.797 71.4242 100.898 69.4719 97.5262 68.1245C94.1836 66.7771 90.4713 66.1034 86.3891 66.1034C82.3366 66.1034 78.6242 66.7771 75.252 68.1245C71.9094 69.4719 69.0105 71.4242 66.5553 73.9815C64.1297 76.5388 62.2514 79.6323 60.9202 83.262C59.5891 86.8642 58.9235 90.9614 58.9235 95.5535L58.9235 98.3996C58.9235 102.964 59.5891 107.061 60.9202 110.691C62.2809 114.321 64.1889 117.414 66.6441 119.972C69.0993 122.501 71.9982 124.44 75.3408 125.787C78.713 127.135 82.4253 127.808 86.4779 127.808C90.56 127.808 94.2724 127.135 97.615 125.787C100.987 124.44 103.886 122.501 106.312 119.972C108.737 117.414 110.616 114.321 111.947 110.691C113.278 107.061 113.943 102.964 113.943 98.3996ZM317.961 91.6763L317.961 102.071C317.961 106.58 317.443 110.471 316.408 113.743C315.372 116.988 313.879 119.655 311.926 121.745C310.003 123.808 307.711 125.334 305.049 126.324C302.386 127.313 299.428 127.808 296.174 127.808C293.571 127.808 291.146 127.506 288.898 126.901C286.65 126.269 284.623 125.292 282.819 123.972C281.044 122.653 279.506 120.989 278.204 118.982C276.932 116.947 275.956 114.527 275.276 111.722C274.595 108.917 274.255 105.7 274.255 102.071L274.255 91.6763C274.255 87.1667 274.773 83.3033 275.808 80.086C276.873 76.8413 278.367 74.1878 280.29 72.1254C282.242 70.0631 284.549 68.5507 287.212 67.5883C289.874 66.5984 292.832 66.1034 296.086 66.1034C298.689 66.1034 301.1 66.4196 303.318 67.0521C305.566 67.657 307.593 68.6057 309.397 69.8981C311.201 71.1905 312.74 72.8541 314.012 74.8889C315.284 76.8963 316.26 79.3023 316.94 82.1071C317.62 84.8844 317.961 88.0741 317.961 91.6763ZM54.5314 66.9286L54.5314 76.6216L34.6532 76.6216L34.6532 126.984L21.3863 126.984L21.3863 76.6216L1.81873 76.6216L1.81873 66.9286L54.5314 66.9286ZM176.153 126.984L176.153 66.9286L123.573 66.9286L123.573 126.984L136.885 126.984L136.885 76.6216L162.842 76.6216L162.842 126.984L176.153 126.984ZM224.118 97.3686L234.323 99.6372C235.181 98.7573 236.246 97.9736 237.518 97.2862C238.82 96.5987 240.654 96.255 243.02 96.255C244.765 96.255 246.289 96.5162 247.59 97.0387C248.921 97.5611 250.016 98.3036 250.874 99.266C250.969 99.3733 251.062 99.4829 251.152 99.5946L251.155 99.5979C251.872 100.488 252.414 101.518 252.782 102.689C253.196 104.009 253.403 105.48 253.403 107.103C253.403 108.725 253.225 110.238 252.87 111.64C252.545 113.015 252.027 114.225 251.318 115.27C250.608 116.287 249.676 117.085 248.522 117.662C247.368 118.239 245.978 118.528 244.351 118.528C242.606 118.528 241.083 118.198 239.781 117.538C238.48 116.878 237.429 115.943 236.631 114.733C235.862 113.496 235.388 112.025 235.211 110.32L222.521 110.32C222.58 113.097 223.216 115.572 224.429 117.745C224.865 118.497 225.35 119.211 225.884 119.886C226.872 121.134 228.029 122.249 229.354 123.23C231.425 124.743 233.747 125.884 236.32 126.654C238.923 127.424 241.615 127.809 244.396 127.809C248.123 127.809 251.347 127.272 254.068 126.2C256.79 125.128 259.053 123.657 260.857 121.787C262.046 120.537 263.036 119.179 263.826 117.715L263.827 117.714L263.843 117.685C264.245 116.935 264.596 116.158 264.895 115.352C265.782 112.932 266.226 110.389 266.226 107.722C266.226 104.559 265.782 101.727 264.895 99.2247C264.008 96.7225 262.706 94.6051 260.99 92.8728C259.304 91.1404 257.248 89.8205 254.823 88.9131C252.397 88.0057 249.617 87.5519 246.481 87.5519C244.322 87.5519 242.369 87.8269 240.624 88.3769C238.879 88.8993 237.577 89.3943 236.719 89.8617L238.317 76.5391L264.096 76.5391L264.096 66.9286L227.801 66.9286L224.118 97.3686ZM305.137 103.638L305.137 90.0677C305.137 87.8954 305.004 85.9981 304.738 84.3757C304.501 82.7533 304.132 81.3784 303.629 80.251C303.126 79.0961 302.505 78.1612 301.765 77.4462C301.026 76.7313 300.183 76.2088 299.236 75.8789C298.29 75.5489 297.239 75.3839 296.086 75.3839C294.636 75.3839 293.35 75.6451 292.226 76.1676C291.131 76.69 290.199 77.5287 289.43 78.6836C288.661 79.8111 288.069 81.3234 287.655 83.2208C287.271 85.0906 287.078 87.3729 287.078 90.0677L287.078 103.638C287.078 105.81 287.197 107.721 287.433 109.371C287.7 111.021 288.084 112.437 288.587 113.62C289.12 114.774 289.741 115.723 290.451 116.466C291.19 117.181 292.033 117.703 292.98 118.033C293.956 118.363 295.021 118.528 296.174 118.528C297.594 118.528 298.852 118.267 299.946 117.744C301.07 117.194 302.017 116.342 302.786 115.187C303.584 114.005 304.176 112.465 304.561 110.567C304.945 108.67 305.137 106.36 305.137 103.638ZM100.499 95.471L100.499 98.3996C100.499 101.562 100.188 104.367 99.5673 106.814C98.9461 109.234 98.0439 111.282 96.8607 112.96C95.6774 114.61 94.2132 115.861 92.4679 116.713C90.7227 117.566 88.726 117.992 86.4779 117.992C84.2297 117.992 82.2331 117.566 80.4878 116.713C78.7425 115.861 77.2635 114.61 76.0507 112.96C74.8379 111.282 73.9209 109.234 73.2997 106.814C72.6785 104.367 72.3679 101.562 72.3679 98.3996L72.3679 95.471C72.3679 92.2813 72.6785 89.4765 73.2997 87.0567C73.9209 84.6369 74.8231 82.6021 76.0063 80.9522C77.2191 79.3023 78.6834 78.0649 80.3991 77.24C82.1443 76.3876 84.141 75.9614 86.3891 75.9614C88.6373 75.9614 90.6339 76.3876 92.3792 77.24C94.1245 78.0649 95.6035 79.3023 96.8163 80.9522C98.0291 82.6021 98.9461 84.6369 99.5673 87.0567C100.188 89.4765 100.499 92.2813 100.499 95.471ZM212.181 105.865L212.181 96.5429L187.112 96.5429L187.112 105.865L212.181 105.865ZM112.384 175.544C113.734 171.862 114.405 167.717 114.405 163.115L114.405 160.269C114.405 155.783 113.761 151.751 112.466 148.18L112.339 147.836C110.99 144.16 109.068 141.017 106.568 138.413C104.099 135.81 101.145 133.821 97.7121 132.449L97.7117 132.448C94.3051 131.075 90.5299 130.392 86.3929 130.392C82.2846 130.392 78.5096 131.076 75.0745 132.448L75.0732 132.449C71.6689 133.821 68.7158 135.81 66.2169 138.413L66.2151 138.415C63.7451 141.019 61.8383 144.163 60.4901 147.839C59.1396 151.493 58.4686 155.639 58.4686 160.269L58.4686 163.115C58.4686 167.717 59.1396 171.862 60.4897 175.544L60.491 175.547C61.8692 179.223 63.8057 182.366 66.3055 184.97L66.3073 184.972C68.8061 187.547 71.7588 189.522 75.1618 190.893L75.1632 190.894C78.5982 192.266 82.3732 192.95 86.4815 192.95C90.6187 192.95 94.3941 192.267 97.8008 190.893L97.8003 190.893C101.233 189.521 104.187 187.547 106.657 184.97L106.659 184.969C109.129 182.364 111.036 179.22 112.384 175.544ZM316.849 178.579C317.9 175.257 318.421 171.324 318.421 166.786L318.421 156.391C318.421 152.766 318.078 149.543 317.388 146.728C316.743 144.068 315.832 141.749 314.648 139.777L314.408 139.388C313.11 137.312 311.534 135.605 309.678 134.276C307.827 132.95 305.749 131.978 303.447 131.358C301.182 130.713 298.727 130.392 296.087 130.392C292.784 130.392 289.769 130.895 287.047 131.906L286.792 132C284.166 132.992 281.884 134.513 279.947 136.559L279.945 136.562C277.971 138.678 276.45 141.389 275.371 144.677L275.371 144.679C274.319 147.947 273.798 151.854 273.798 156.391L273.798 166.786C273.798 170.439 274.141 173.689 274.83 176.531C275.518 179.369 276.51 181.831 277.81 183.911L277.813 183.917C279.14 185.962 280.713 187.666 282.534 189.02L282.537 189.023C284.387 190.376 286.465 191.377 288.766 192.024L288.772 192.025C291.065 192.643 293.535 192.95 296.176 192.95C299.48 192.95 302.497 192.447 305.22 191.434C307.952 190.419 310.305 188.852 312.274 186.739L312.274 186.739C314.277 184.594 315.799 181.87 316.849 178.58L316.849 178.579ZM111.906 147.977C113.267 151.579 113.947 155.677 113.947 160.269L113.947 163.115L113.945 163.541C113.905 167.935 113.24 171.89 111.95 175.406L111.824 175.745C110.501 179.229 108.665 182.21 106.315 184.687L106.086 184.922C103.708 187.337 100.885 189.197 97.6186 190.503C94.276 191.85 90.5636 192.523 86.4815 192.523L86.1023 192.522C82.1972 192.481 78.6112 191.808 75.3445 190.503C72.0019 189.155 69.1027 187.217 66.6475 184.687C64.1924 182.13 62.2846 179.036 60.9239 175.406C59.6344 171.89 58.9695 167.935 58.9292 163.541L58.927 163.115L58.927 160.269C58.927 155.677 59.5928 151.579 60.9239 147.977C62.2135 144.461 64.0166 141.448 66.3333 138.938L66.5589 138.697C68.9373 136.219 71.7322 134.31 74.9434 132.968L75.2554 132.84C78.6276 131.492 82.3403 130.819 86.3929 130.819L86.7743 130.821C90.7064 130.861 94.2918 131.534 97.5299 132.84C100.902 134.187 103.801 136.139 106.226 138.697C108.682 141.254 110.575 144.348 111.906 147.977ZM316.942 146.822C317.622 149.599 317.962 152.789 317.962 156.391L317.962 166.786L317.956 167.624C317.895 171.779 317.38 175.391 316.409 178.458C315.374 181.703 313.88 184.371 311.928 186.46C310.005 188.523 307.712 190.049 305.05 191.039L304.8 191.13C302.203 192.059 299.328 192.523 296.176 192.523L295.69 192.52C293.27 192.485 291.007 192.183 288.899 191.616C286.651 190.984 284.625 190.007 282.821 188.688C281.046 187.368 279.507 185.704 278.206 183.697C276.934 181.662 275.958 179.242 275.277 176.438C274.639 173.808 274.3 170.816 274.261 167.461L274.257 166.786L274.257 156.391C274.257 152.023 274.743 148.26 275.714 145.105L275.81 144.801C276.842 141.658 278.276 139.069 280.112 137.036L280.291 136.84C282.244 134.778 284.551 133.266 287.213 132.303C289.875 131.313 292.833 130.819 296.087 130.819C298.69 130.819 301.101 131.135 303.32 131.767L303.739 131.885C305.82 132.492 307.707 133.402 309.398 134.613L309.734 134.86C311.394 136.115 312.821 137.697 314.013 139.604C315.285 141.612 316.261 144.017 316.942 146.822ZM54.9908 141.762L35.113 141.762L35.113 192.124L20.9293 192.124L20.9293 141.762L1.36165 141.762L1.36165 131.217L54.9908 131.217L54.9908 141.762ZM176.61 192.125L162.382 192.125L162.382 141.763L137.342 141.763L137.342 192.125L123.114 192.125L123.114 131.218L176.61 131.218L176.61 192.125ZM248.305 182.002C247.232 182.539 245.92 182.817 244.351 182.817C242.669 182.817 241.224 182.5 240.001 181.88C238.774 181.258 237.783 180.378 237.025 179.232C236.296 178.058 235.839 176.649 235.667 174.994L235.627 174.609L222.053 174.609L222.063 175.044C222.123 177.878 222.773 180.418 224.022 182.656L224.023 182.659L224.025 182.662C225.297 184.857 226.979 186.731 229.068 188.279L229.071 188.281C231.185 189.825 233.556 190.99 236.18 191.775L236.181 191.775C238.83 192.559 241.569 192.95 244.396 192.95C248.169 192.95 251.457 192.408 254.248 191.308C257.025 190.213 259.345 188.707 261.198 186.787L261.201 186.784C263.045 184.845 264.421 182.652 265.328 180.206L265.329 180.205C266.233 177.739 266.685 175.149 266.685 172.437C266.685 169.238 266.236 166.36 265.331 163.807C264.453 161.333 263.176 159.217 261.492 157.467L261.328 157.299C259.594 155.519 257.48 154.163 254.994 153.233C252.504 152.302 249.664 151.841 246.481 151.841C244.283 151.841 242.282 152.121 240.484 152.687C239.181 153.077 238.106 153.456 237.271 153.827L238.727 141.68L264.555 141.68L264.555 131.218L227.391 131.218L223.617 162.411L234.481 164.825L234.663 164.639C235.433 163.848 236.384 163.134 237.519 162.496L237.749 162.37C238.952 161.736 240.694 161.397 243.02 161.397C244.717 161.397 246.176 161.65 247.408 162.145L247.412 162.146C248.681 162.644 249.714 163.347 250.521 164.253C251.335 165.167 251.943 166.254 252.342 167.524C252.742 168.799 252.945 170.229 252.945 171.818C252.945 173.412 252.77 174.891 252.424 176.258L252.423 176.261L252.423 176.264C252.108 177.595 251.609 178.756 250.933 179.753C250.265 180.71 249.391 181.458 248.305 182.002ZM54.5324 131.643L1.82004 131.643L1.82004 141.336L21.3877 141.336L21.3877 191.698L34.6546 191.698L34.6546 141.336L54.5324 141.336L54.5324 131.643ZM176.152 131.644L123.572 131.644L123.572 191.699L136.884 191.699L136.884 141.337L162.841 141.337L162.841 191.699L176.152 191.699L176.152 131.644ZM264.895 163.94C265.782 166.442 266.226 169.275 266.226 172.437L266.221 172.935C266.169 175.422 265.727 177.799 264.895 180.067C264.008 182.46 262.662 184.605 260.857 186.502L260.687 186.676C258.911 188.463 256.705 189.877 254.069 190.916L253.812 191.015C251.145 192.021 248.006 192.524 244.396 192.524L243.875 192.52C241.279 192.475 238.761 192.091 236.32 191.369C233.747 190.599 231.425 189.458 229.354 187.946C227.313 186.433 225.671 184.605 224.429 182.46C223.216 180.288 222.58 177.813 222.521 175.036L235.211 175.036C235.388 176.74 235.862 178.211 236.631 179.449C237.43 180.659 238.479 181.594 239.781 182.254L240.028 182.374C241.191 182.915 242.524 183.203 244.026 183.24L244.351 183.243C245.877 183.243 247.194 182.99 248.303 182.482L248.522 182.377C249.604 181.836 250.49 181.101 251.182 180.173L251.317 179.985C251.983 179.005 252.48 177.881 252.807 176.611L252.871 176.355C253.226 174.953 253.403 173.44 253.403 171.818C253.403 170.196 253.196 168.725 252.782 167.405C252.367 166.085 251.732 164.944 250.874 163.981C250.016 163.019 248.921 162.276 247.59 161.754C246.37 161.264 244.955 161.004 243.345 160.973L243.02 160.97C240.654 160.97 238.82 161.314 237.518 162.002C236.246 162.689 235.181 163.472 234.323 164.352L224.118 162.084L227.801 131.644L264.096 131.644L264.096 141.254L238.317 141.254L236.72 154.577C237.47 154.168 238.56 153.738 239.99 153.287L240.624 153.092C242.37 152.542 244.322 152.267 246.481 152.267C249.616 152.267 252.397 152.721 254.823 153.628L255.273 153.803C257.504 154.703 259.41 155.964 260.991 157.588C262.706 159.32 264.008 161.438 264.895 163.94ZM295.961 183.241L296.176 183.243C297.507 183.243 298.695 183.013 299.74 182.554L299.948 182.459C301.072 181.909 302.018 181.057 302.787 179.902C303.586 178.72 304.177 177.18 304.562 175.282C304.922 173.504 305.114 171.362 305.137 168.859L305.139 168.353L305.139 154.783C305.139 152.611 305.006 150.713 304.74 149.091C304.503 147.468 304.133 146.094 303.63 144.966C303.128 143.811 302.506 142.876 301.767 142.161C301.027 141.446 300.184 140.924 299.238 140.594C298.35 140.285 297.372 140.121 296.302 140.101L296.087 140.099C294.638 140.099 293.351 140.36 292.227 140.883C291.133 141.405 290.201 142.244 289.431 143.399L289.29 143.615C288.589 144.717 288.045 146.157 287.657 147.936C287.272 149.806 287.08 152.088 287.08 154.783L287.08 168.353C287.08 170.525 287.198 172.437 287.435 174.086C287.701 175.736 288.086 177.152 288.589 178.335C289.121 179.49 289.742 180.438 290.452 181.181C291.192 181.896 292.035 182.418 292.981 182.748L293.165 182.808C294.029 183.079 294.961 183.223 295.961 183.241ZM304.681 154.783L304.681 168.353C304.681 171.059 304.489 173.341 304.112 175.204C303.734 177.067 303.158 178.552 302.399 179.675L302.398 179.678C301.666 180.777 300.778 181.571 299.738 182.08C298.718 182.567 297.534 182.817 296.176 182.817C295.072 182.817 294.062 182.659 293.142 182.349C292.268 182.044 291.485 181.562 290.792 180.895C290.124 180.196 289.529 179.291 289.012 178.172C288.557 177.1 288.198 175.819 287.939 174.325L287.888 174.023C287.656 172.398 287.538 170.509 287.538 168.353L287.538 154.783C287.538 152.107 287.729 149.855 288.106 148.021C288.513 146.153 289.09 144.695 289.819 143.627L289.821 143.623C290.509 142.591 291.32 141.841 292.249 141.355L292.436 141.262C293.487 140.775 294.7 140.525 296.087 140.525C297.193 140.525 298.188 140.683 299.076 140.993C299.955 141.299 300.742 141.785 301.436 142.457C302.126 143.124 302.719 144.009 303.206 145.126L303.207 145.129C303.69 146.213 304.052 147.551 304.285 149.148L304.286 149.152L304.287 149.155C304.548 150.751 304.681 152.626 304.681 154.783ZM86.063 182.702L86.4815 182.707C88.589 182.707 90.4755 182.332 92.1411 181.583L92.4715 181.428C94.2167 180.576 95.681 179.325 96.8643 177.675C98.0475 175.997 98.9496 173.949 99.5708 171.529C100.153 169.235 100.463 166.626 100.499 163.704L100.503 163.115L100.503 160.186C100.503 156.996 100.192 154.192 99.5708 151.772C98.9496 149.352 98.0327 147.317 96.8199 145.667C95.6072 144.017 94.1281 142.78 92.3829 141.955C90.7467 141.156 88.8895 140.732 86.8114 140.682L86.3929 140.677C84.1447 140.677 82.1477 141.103 80.4024 141.955C78.6868 142.78 77.2225 144.017 76.0097 145.667C74.8265 147.317 73.9244 149.352 73.3032 151.772L73.1904 152.23C72.6444 154.544 72.3716 157.196 72.3716 160.186L72.3716 163.115L72.3752 163.704C72.4116 166.626 72.7209 169.235 73.3032 171.529C73.9244 173.949 74.8416 175.997 76.0544 177.675C77.2672 179.325 78.7463 180.576 80.4915 181.428L80.8214 181.583C82.3761 182.282 84.1233 182.655 86.063 182.702ZM100.044 160.186L100.044 163.115C100.044 166.252 99.736 169.022 99.1249 171.43C98.5135 173.812 97.63 175.811 96.4829 177.438C95.3386 179.034 93.9303 180.235 92.2584 181.051C90.5877 181.867 88.6658 182.281 86.4815 182.281C84.2972 182.281 82.3754 181.867 80.7046 181.051C79.0315 180.234 77.6072 179.032 76.4327 177.434L76.4323 177.434C75.2574 175.808 74.36 173.811 73.749 171.431L73.7495 171.431C73.1382 169.023 72.83 166.252 72.83 163.115L72.83 160.186C72.83 157.021 73.1382 154.251 73.749 151.871C74.3602 149.49 75.2432 147.506 76.3884 145.908C77.5633 144.31 78.9723 143.123 80.6133 142.334L80.616 142.332C82.2867 141.516 84.2086 141.103 86.3929 141.103C88.5771 141.103 90.4986 141.516 92.1693 142.332L92.1751 142.335C93.8452 143.124 95.2675 144.311 96.4412 145.908C97.6158 147.506 98.5136 149.49 99.1249 151.871C99.7358 154.251 100.044 157.021 100.044 160.186ZM212.641 171.007L186.654 171.007L186.654 160.833L212.641 160.833L212.641 171.007ZM212.183 161.259L187.113 161.259L187.113 170.581L212.183 170.581L212.183 161.259Z" fill="url(#paint_linear_1)" fill-rule="evenodd" />
</svg>
